<svg width="38" height="38" viewBox="0 0 38 38" fill="none" xmlns="http://www.w3.org/2000/svg">
<path d="M15.7605 3.50009C17.872 3.05809 20.0778 3.04414 22.2378 3.49574C22.518 5.33169 23.5993 7.02827 25.3329 8.02911C27.0663 9.02993 29.0763 9.11814 30.8063 8.44279C32.2775 10.0877 33.3683 12.0049 34.0412 14.0545C32.5932 15.2151 31.6662 16.9986 31.6662 18.9987C31.6662 21 32.5943 22.7845 34.0437 23.945C33.7092 24.959 33.2665 25.9543 32.7115 26.9154C32.1566 27.8766 31.5161 28.7576 30.8052 29.5543C29.0754 28.8793 27.066 28.9679 25.3329 29.9684C23.6007 30.9684 22.5198 32.6632 22.2384 34.4975C20.127 34.9394 17.9213 34.9533 15.7612 34.5018C15.481 32.6659 14.3996 30.9692 12.6661 29.9684C10.9327 28.9675 8.9227 28.8793 7.19264 29.5548C5.72149 27.9099 4.63071 25.9926 3.95776 23.943C5.40569 22.7824 6.33283 20.9988 6.33283 18.9987C6.33283 16.9975 5.40461 15.2131 3.95525 14.0524C4.28977 13.0384 4.73249 12.0433 5.28742 11.0821C5.84236 10.1209 6.48285 9.23993 7.19373 8.44321C8.92356 9.11809 10.933 9.02973 12.6661 8.02911C14.3983 7.02906 15.4793 5.33439 15.7605 3.50009ZM18.9995 23.7487C21.6228 23.7487 23.7495 21.6221 23.7495 18.9987C23.7495 16.3754 21.6228 14.2488 18.9995 14.2488C16.3761 14.2488 14.2495 16.3754 14.2495 18.9987C14.2495 21.6221 16.3761 23.7487 18.9995 23.7487Z" fill="white"/>
</svg>
